<?xml version="1.0" encoding="UTF-8" standalone="no"?>
<!DOCTYPE svg PUBLIC "-//W3C//DTD SVG 1.1//EN"
 "http://www.w3.org/Graphics/SVG/1.1/DTD/svg11.dtd">
<!-- Generated by graphviz version 2.47.3 (20210619.1520)
 -->
<!-- Title: dependencies Pages: 1 -->
<svg width="1354pt" height="247pt"
 viewBox="0.00 0.00 1354.00 246.80" xmlns="http://www.w3.org/2000/svg" xmlns:xlink="http://www.w3.org/1999/xlink">
<g id="graph0" class="graph" transform="scale(1 1) rotate(0) translate(4 242.8)">
<title>dependencies</title>
<polygon fill="white" stroke="transparent" points="-4,4 -4,-242.8 1350,-242.8 1350,4 -4,4"/>
<text text-anchor="middle" x="673" y="-8.2" font-family="sans-serif" font-size="14.00">dependencies</text>
<g id="clust1" class="cluster">
<title>cluster_HomePageModule</title>
<polygon fill="none" stroke="black" stroke-dasharray="1,5" points="8,-32.8 8,-230.8 1338,-230.8 1338,-32.8 8,-32.8"/>
</g>
<g id="clust2" class="cluster">
<title>cluster_HomePageModule_declarations</title>
<polygon fill="none" stroke="black" points="950,-40.8 950,-92.8 1330,-92.8 1330,-40.8 950,-40.8"/>
</g>
<g id="clust6" class="cluster">
<title>cluster_HomePageModule_imports</title>
<polygon fill="none" stroke="black" points="16,-40.8 16,-92.8 942,-92.8 942,-40.8 16,-40.8"/>
</g>
<g id="clust7" class="cluster">
<title>cluster_HomePageModule_exports</title>
<polygon fill="none" stroke="black" points="622,-170.8 622,-222.8 782,-222.8 782,-170.8 622,-170.8"/>
</g>
<!-- HomePage -->
<g id="node1" class="node">
<title>HomePage</title>
<polygon fill="#ffffb3" stroke="black" points="1321.92,-84.8 1244.08,-84.8 1244.08,-48.8 1321.92,-48.8 1321.92,-84.8"/>
<text text-anchor="middle" x="1283" y="-62.6" font-family="Times,serif" font-size="14.00">HomePage</text>
</g>
<!-- HomePageModule -->
<g id="node4" class="node">
<title>HomePageModule</title>
<polygon fill="#8dd3c7" stroke="black" points="762.47,-149.8 759.47,-153.8 738.47,-153.8 735.47,-149.8 641.53,-149.8 641.53,-113.8 762.47,-113.8 762.47,-149.8"/>
<text text-anchor="middle" x="702" y="-127.6" font-family="Times,serif" font-size="14.00">HomePageModule</text>
</g>
<!-- HomePage&#45;&gt;HomePageModule -->
<g id="edge1" class="edge">
<title>HomePage&#45;&gt;HomePageModule</title>
<path fill="none" stroke="black" d="M1283,-84.81C1283,-107.29 1283,-142.8 1283,-142.8 1283,-142.8 772.53,-142.8 772.53,-142.8"/>
<polygon fill="black" stroke="black" points="772.53,-139.3 762.53,-142.8 772.53,-146.3 772.53,-139.3"/>
</g>
<!-- CardComponent -->
<g id="node2" class="node">
<title>CardComponent</title>
<polygon fill="#ffffb3" stroke="black" points="1226.05,-84.8 1117.95,-84.8 1117.95,-48.8 1226.05,-48.8 1226.05,-84.8"/>
<text text-anchor="middle" x="1172" y="-62.6" font-family="Times,serif" font-size="14.00">CardComponent</text>
</g>
<!-- CardComponent&#45;&gt;HomePageModule -->
<g id="edge2" class="edge">
<title>CardComponent&#45;&gt;HomePageModule</title>
<path fill="none" stroke="black" d="M1172,-84.93C1172,-105.37 1172,-135.8 1172,-135.8 1172,-135.8 772.48,-135.8 772.48,-135.8"/>
<polygon fill="black" stroke="black" points="772.48,-132.3 762.48,-135.8 772.48,-139.3 772.48,-132.3"/>
</g>
<!-- SmallCardComponent -->
<g id="node3" class="node">
<title>SmallCardComponent</title>
<polygon fill="#ffffb3" stroke="black" points="1099.71,-84.8 958.29,-84.8 958.29,-48.8 1099.71,-48.8 1099.71,-84.8"/>
<text text-anchor="middle" x="1029" y="-62.6" font-family="Times,serif" font-size="14.00">SmallCardComponent</text>
</g>
<!-- SmallCardComponent&#45;&gt;HomePageModule -->
<g id="edge3" class="edge">
<title>SmallCardComponent&#45;&gt;HomePageModule</title>
<path fill="none" stroke="black" d="M1029,-85.07C1029,-103.36 1029,-128.8 1029,-128.8 1029,-128.8 772.74,-128.8 772.74,-128.8"/>
<polygon fill="black" stroke="black" points="772.74,-125.3 762.74,-128.8 772.74,-132.3 772.74,-125.3"/>
</g>
<!-- SmallCardComponent  -->
<g id="node12" class="node">
<title>SmallCardComponent </title>
<polygon fill="#fb8072" stroke="black" points="774.21,-214.8 629.79,-214.8 629.79,-178.8 774.21,-178.8 774.21,-214.8"/>
<text text-anchor="middle" x="702" y="-192.6" font-family="Times,serif" font-size="14.00">SmallCardComponent </text>
</g>
<!-- HomePageModule&#45;&gt;SmallCardComponent  -->
<g id="edge11" class="edge">
<title>HomePageModule&#45;&gt;SmallCardComponent </title>
<path fill="none" stroke="black" stroke-dasharray="5,2" d="M702,-149.91C702,-149.91 702,-168.79 702,-168.79"/>
<polygon fill="black" stroke="black" points="698.5,-168.79 702,-178.79 705.5,-168.79 698.5,-168.79"/>
</g>
<!-- CommonModule -->
<g id="node5" class="node">
<title>CommonModule</title>
<polygon fill="#8dd3c7" stroke="black" points="933.67,-84.8 930.67,-88.8 909.67,-88.8 906.67,-84.8 822.33,-84.8 822.33,-48.8 933.67,-48.8 933.67,-84.8"/>
<text text-anchor="middle" x="878" y="-62.6" font-family="Times,serif" font-size="14.00">CommonModule</text>
</g>
<!-- CommonModule&#45;&gt;HomePageModule -->
<g id="edge4" class="edge">
<title>CommonModule&#45;&gt;HomePageModule</title>
<path fill="none" stroke="black" d="M878,-84.81C878,-100.85 878,-121.8 878,-121.8 878,-121.8 772.57,-121.8 772.57,-121.8"/>
<polygon fill="black" stroke="black" points="772.57,-118.3 762.57,-121.8 772.57,-125.3 772.57,-118.3"/>
</g>
<!-- FormsModule -->
<g id="node6" class="node">
<title>FormsModule</title>
<polygon fill="#8dd3c7" stroke="black" points="804.83,-84.8 801.83,-88.8 780.83,-88.8 777.83,-84.8 709.17,-84.8 709.17,-48.8 804.83,-48.8 804.83,-84.8"/>
<text text-anchor="middle" x="757" y="-62.6" font-family="Times,serif" font-size="14.00">FormsModule</text>
</g>
<!-- FormsModule&#45;&gt;HomePageModule -->
<g id="edge5" class="edge">
<title>FormsModule&#45;&gt;HomePageModule</title>
<path fill="none" stroke="black" d="M735.91,-84.91C735.91,-84.91 735.91,-103.79 735.91,-103.79"/>
<polygon fill="black" stroke="black" points="732.41,-103.79 735.91,-113.79 739.41,-103.79 732.41,-103.79"/>
</g>
<!-- IonicModule -->
<g id="node7" class="node">
<title>IonicModule</title>
<polygon fill="#8dd3c7" stroke="black" points="691.32,-84.8 688.32,-88.8 667.32,-88.8 664.32,-84.8 602.68,-84.8 602.68,-48.8 691.32,-48.8 691.32,-84.8"/>
<text text-anchor="middle" x="647" y="-62.6" font-family="Times,serif" font-size="14.00">IonicModule</text>
</g>
<!-- IonicModule&#45;&gt;HomePageModule -->
<g id="edge6" class="edge">
<title>IonicModule&#45;&gt;HomePageModule</title>
<path fill="none" stroke="black" d="M666.34,-84.91C666.34,-84.91 666.34,-103.79 666.34,-103.79"/>
<polygon fill="black" stroke="black" points="662.84,-103.79 666.34,-113.79 669.84,-103.79 662.84,-103.79"/>
</g>
<!-- HomePageRoutingModule -->
<g id="node8" class="node">
<title>HomePageRoutingModule</title>
<polygon fill="#8dd3c7" stroke="black" points="585.09,-84.8 582.09,-88.8 561.09,-88.8 558.09,-84.8 418.91,-84.8 418.91,-48.8 585.09,-48.8 585.09,-84.8"/>
<text text-anchor="middle" x="502" y="-62.6" font-family="Times,serif" font-size="14.00">HomePageRoutingModule</text>
</g>
<!-- HomePageRoutingModule&#45;&gt;HomePageModule -->
<g id="edge7" class="edge">
<title>HomePageRoutingModule&#45;&gt;HomePageModule</title>
<path fill="none" stroke="black" d="M502,-84.81C502,-100.85 502,-121.8 502,-121.8 502,-121.8 631.45,-121.8 631.45,-121.8"/>
<polygon fill="black" stroke="black" points="631.45,-125.3 641.45,-121.8 631.45,-118.3 631.45,-125.3"/>
</g>
<!-- SwiperModule -->
<g id="node9" class="node">
<title>SwiperModule</title>
<polygon fill="#8dd3c7" stroke="black" points="400.71,-84.8 397.71,-88.8 376.71,-88.8 373.71,-84.8 301.29,-84.8 301.29,-48.8 400.71,-48.8 400.71,-84.8"/>
<text text-anchor="middle" x="351" y="-62.6" font-family="Times,serif" font-size="14.00">SwiperModule</text>
</g>
<!-- SwiperModule&#45;&gt;HomePageModule -->
<g id="edge8" class="edge">
<title>SwiperModule&#45;&gt;HomePageModule</title>
<path fill="none" stroke="black" d="M351,-85.07C351,-103.36 351,-128.8 351,-128.8 351,-128.8 631.26,-128.8 631.26,-128.8"/>
<polygon fill="black" stroke="black" points="631.26,-132.3 641.26,-128.8 631.26,-125.3 631.26,-132.3"/>
</g>
<!-- NgbRatingModule -->
<g id="node10" class="node">
<title>NgbRatingModule</title>
<polygon fill="#8dd3c7" stroke="black" points="283.49,-84.8 280.49,-88.8 259.49,-88.8 256.49,-84.8 162.51,-84.8 162.51,-48.8 283.49,-48.8 283.49,-84.8"/>
<text text-anchor="middle" x="223" y="-62.6" font-family="Times,serif" font-size="14.00">NgbRatingModule</text>
</g>
<!-- NgbRatingModule&#45;&gt;HomePageModule -->
<g id="edge9" class="edge">
<title>NgbRatingModule&#45;&gt;HomePageModule</title>
<path fill="none" stroke="black" d="M223,-84.93C223,-105.37 223,-135.8 223,-135.8 223,-135.8 631.33,-135.8 631.33,-135.8"/>
<polygon fill="black" stroke="black" points="631.33,-139.3 641.33,-135.8 631.33,-132.3 631.33,-139.3"/>
</g>
<!-- DetailPageModule -->
<g id="node11" class="node">
<title>DetailPageModule</title>
<polygon fill="#8dd3c7" stroke="black" points="144.47,-84.8 141.47,-88.8 120.47,-88.8 117.47,-84.8 23.53,-84.8 23.53,-48.8 144.47,-48.8 144.47,-84.8"/>
<text text-anchor="middle" x="84" y="-62.6" font-family="Times,serif" font-size="14.00">DetailPageModule</text>
</g>
<!-- DetailPageModule&#45;&gt;HomePageModule -->
<g id="edge10" class="edge">
<title>DetailPageModule&#45;&gt;HomePageModule</title>
<path fill="none" stroke="black" d="M84,-84.81C84,-107.29 84,-142.8 84,-142.8 84,-142.8 631.34,-142.8 631.34,-142.8"/>
<polygon fill="black" stroke="black" points="631.34,-146.3 641.34,-142.8 631.34,-139.3 631.34,-146.3"/>
</g>
</g>
</svg>
