<?xml version="1.0" encoding="UTF-8" standalone="no"?>
<!DOCTYPE svg PUBLIC "-//W3C//DTD SVG 1.1//EN"
 "http://www.w3.org/Graphics/SVG/1.1/DTD/svg11.dtd">
<!-- Generated by graphviz version 2.47.3 (20210619.1520)
 -->
<!-- Title: dependencies Pages: 1 -->
<svg width="658pt" height="174pt"
 viewBox="0.00 0.00 658.00 173.80" xmlns="http://www.w3.org/2000/svg" xmlns:xlink="http://www.w3.org/1999/xlink">
<g id="graph0" class="graph" transform="scale(1 1) rotate(0) translate(4 169.8)">
<title>dependencies</title>
<polygon fill="white" stroke="transparent" points="-4,4 -4,-169.8 654,-169.8 654,4 -4,4"/>
<text text-anchor="middle" x="325" y="-8.2" font-family="sans-serif" font-size="14.00">dependencies</text>
<g id="clust1" class="cluster">
<title>cluster_TabsPageModule</title>
<polygon fill="none" stroke="black" stroke-dasharray="1,5" points="8,-32.8 8,-157.8 642,-157.8 642,-32.8 8,-32.8"/>
</g>
<g id="clust4" class="cluster">
<title>cluster_TabsPageModule_imports</title>
<polygon fill="none" stroke="black" points="110,-40.8 110,-92.8 634,-92.8 634,-40.8 110,-40.8"/>
</g>
<g id="clust2" class="cluster">
<title>cluster_TabsPageModule_declarations</title>
<polygon fill="none" stroke="black" points="16,-40.8 16,-92.8 102,-92.8 102,-40.8 16,-40.8"/>
</g>
<!-- TabsPage -->
<g id="node1" class="node">
<title>TabsPage</title>
<polygon fill="#ffffb3" stroke="black" points="94.42,-84.8 23.58,-84.8 23.58,-48.8 94.42,-48.8 94.42,-84.8"/>
<text text-anchor="middle" x="59" y="-62.6" font-family="Times,serif" font-size="14.00">TabsPage</text>
</g>
<!-- TabsPageModule -->
<g id="node2" class="node">
<title>TabsPageModule</title>
<polygon fill="#8dd3c7" stroke="black" points="399.97,-149.8 396.97,-153.8 375.97,-153.8 372.97,-149.8 286.03,-149.8 286.03,-113.8 399.97,-113.8 399.97,-149.8"/>
<text text-anchor="middle" x="343" y="-127.6" font-family="Times,serif" font-size="14.00">TabsPageModule</text>
</g>
<!-- TabsPage&#45;&gt;TabsPageModule -->
<g id="edge1" class="edge">
<title>TabsPage&#45;&gt;TabsPageModule</title>
<path fill="none" stroke="black" d="M59,-84.91C59,-104.14 59,-131.8 59,-131.8 59,-131.8 275.87,-131.8 275.87,-131.8"/>
<polygon fill="black" stroke="black" points="275.87,-135.3 285.87,-131.8 275.87,-128.3 275.87,-135.3"/>
</g>
<!-- IonicModule -->
<g id="node3" class="node">
<title>IonicModule</title>
<polygon fill="#8dd3c7" stroke="black" points="626.32,-84.8 623.32,-88.8 602.32,-88.8 599.32,-84.8 537.68,-84.8 537.68,-48.8 626.32,-48.8 626.32,-84.8"/>
<text text-anchor="middle" x="582" y="-62.6" font-family="Times,serif" font-size="14.00">IonicModule</text>
</g>
<!-- IonicModule&#45;&gt;TabsPageModule -->
<g id="edge2" class="edge">
<title>IonicModule&#45;&gt;TabsPageModule</title>
<path fill="none" stroke="black" d="M582,-84.91C582,-104.14 582,-131.8 582,-131.8 582,-131.8 410.25,-131.8 410.25,-131.8"/>
<polygon fill="black" stroke="black" points="410.25,-128.3 400.25,-131.8 410.25,-135.3 410.25,-128.3"/>
</g>
<!-- CommonModule -->
<g id="node4" class="node">
<title>CommonModule</title>
<polygon fill="#8dd3c7" stroke="black" points="519.67,-84.8 516.67,-88.8 495.67,-88.8 492.67,-84.8 408.33,-84.8 408.33,-48.8 519.67,-48.8 519.67,-84.8"/>
<text text-anchor="middle" x="464" y="-62.6" font-family="Times,serif" font-size="14.00">CommonModule</text>
</g>
<!-- CommonModule&#45;&gt;TabsPageModule -->
<g id="edge3" class="edge">
<title>CommonModule&#45;&gt;TabsPageModule</title>
<path fill="none" stroke="black" d="M408.24,-66.8C400.61,-66.8 395.33,-66.8 395.33,-66.8 395.33,-66.8 395.33,-103.69 395.33,-103.69"/>
<polygon fill="black" stroke="black" points="391.83,-103.69 395.33,-113.69 398.83,-103.69 391.83,-103.69"/>
</g>
<!-- FormsModule -->
<g id="node5" class="node">
<title>FormsModule</title>
<polygon fill="#8dd3c7" stroke="black" points="390.83,-84.8 387.83,-88.8 366.83,-88.8 363.83,-84.8 295.17,-84.8 295.17,-48.8 390.83,-48.8 390.83,-84.8"/>
<text text-anchor="middle" x="343" y="-62.6" font-family="Times,serif" font-size="14.00">FormsModule</text>
</g>
<!-- FormsModule&#45;&gt;TabsPageModule -->
<g id="edge4" class="edge">
<title>FormsModule&#45;&gt;TabsPageModule</title>
<path fill="none" stroke="black" d="M343,-84.91C343,-84.91 343,-103.79 343,-103.79"/>
<polygon fill="black" stroke="black" points="339.5,-103.79 343,-113.79 346.5,-103.79 339.5,-103.79"/>
</g>
<!-- TabsPageRoutingModule -->
<g id="node6" class="node">
<title>TabsPageRoutingModule</title>
<polygon fill="#8dd3c7" stroke="black" points="277.59,-84.8 274.59,-88.8 253.59,-88.8 250.59,-84.8 118.41,-84.8 118.41,-48.8 277.59,-48.8 277.59,-84.8"/>
<text text-anchor="middle" x="198" y="-62.6" font-family="Times,serif" font-size="14.00">TabsPageRoutingModule</text>
</g>
<!-- TabsPageRoutingModule&#45;&gt;TabsPageModule -->
<g id="edge5" class="edge">
<title>TabsPageRoutingModule&#45;&gt;TabsPageModule</title>
<path fill="none" stroke="black" d="M277.79,-66.8C285.58,-66.8 290.67,-66.8 290.67,-66.8 290.67,-66.8 290.67,-103.69 290.67,-103.69"/>
<polygon fill="black" stroke="black" points="287.17,-103.69 290.67,-113.69 294.17,-103.69 287.17,-103.69"/>
</g>
</g>
</svg>
