<?xml version="1.0" encoding="UTF-8" standalone="no"?>
<!DOCTYPE svg PUBLIC "-//W3C//DTD SVG 1.1//EN"
 "http://www.w3.org/Graphics/SVG/1.1/DTD/svg11.dtd">
<!-- Generated by graphviz version 2.47.3 (20210619.1520)
 -->
<!-- Title: dependencies Pages: 1 -->
<svg width="819pt" height="174pt"
 viewBox="0.00 0.00 819.00 173.80" xmlns="http://www.w3.org/2000/svg" xmlns:xlink="http://www.w3.org/1999/xlink">
<g id="graph0" class="graph" transform="scale(1 1) rotate(0) translate(4 169.8)">
<title>dependencies</title>
<polygon fill="white" stroke="transparent" points="-4,4 -4,-169.8 815,-169.8 815,4 -4,4"/>
<text text-anchor="middle" x="405.5" y="-8.2" font-family="sans-serif" font-size="14.00">dependencies</text>
<g id="clust1" class="cluster">
<title>cluster_SearchPageModule</title>
<polygon fill="none" stroke="black" stroke-dasharray="1,5" points="8,-32.8 8,-157.8 803,-157.8 803,-32.8 8,-32.8"/>
</g>
<g id="clust4" class="cluster">
<title>cluster_SearchPageModule_imports</title>
<polygon fill="none" stroke="black" points="122,-40.8 122,-92.8 795,-92.8 795,-40.8 122,-40.8"/>
</g>
<g id="clust2" class="cluster">
<title>cluster_SearchPageModule_declarations</title>
<polygon fill="none" stroke="black" points="16,-40.8 16,-92.8 114,-92.8 114,-40.8 16,-40.8"/>
</g>
<!-- SearchPage -->
<g id="node1" class="node">
<title>SearchPage</title>
<polygon fill="#ffffb3" stroke="black" points="105.8,-84.8 24.2,-84.8 24.2,-48.8 105.8,-48.8 105.8,-84.8"/>
<text text-anchor="middle" x="65" y="-62.6" font-family="Times,serif" font-size="14.00">SearchPage</text>
</g>
<!-- SearchPageModule -->
<g id="node2" class="node">
<title>SearchPageModule</title>
<polygon fill="#8dd3c7" stroke="black" points="488.35,-149.8 485.35,-153.8 464.35,-153.8 461.35,-149.8 363.65,-149.8 363.65,-113.8 488.35,-113.8 488.35,-149.8"/>
<text text-anchor="middle" x="426" y="-127.6" font-family="Times,serif" font-size="14.00">SearchPageModule</text>
</g>
<!-- SearchPage&#45;&gt;SearchPageModule -->
<g id="edge1" class="edge">
<title>SearchPage&#45;&gt;SearchPageModule</title>
<path fill="none" stroke="black" d="M65,-85.08C65,-106.12 65,-137.8 65,-137.8 65,-137.8 353.53,-137.8 353.53,-137.8"/>
<polygon fill="black" stroke="black" points="353.53,-141.3 363.53,-137.8 353.53,-134.3 353.53,-141.3"/>
</g>
<!-- CommonModule -->
<g id="node3" class="node">
<title>CommonModule</title>
<polygon fill="#8dd3c7" stroke="black" points="786.67,-84.8 783.67,-88.8 762.67,-88.8 759.67,-84.8 675.33,-84.8 675.33,-48.8 786.67,-48.8 786.67,-84.8"/>
<text text-anchor="middle" x="731" y="-62.6" font-family="Times,serif" font-size="14.00">CommonModule</text>
</g>
<!-- CommonModule&#45;&gt;SearchPageModule -->
<g id="edge2" class="edge">
<title>CommonModule&#45;&gt;SearchPageModule</title>
<path fill="none" stroke="black" d="M731,-85.08C731,-106.12 731,-137.8 731,-137.8 731,-137.8 498.46,-137.8 498.46,-137.8"/>
<polygon fill="black" stroke="black" points="498.46,-134.3 488.46,-137.8 498.46,-141.3 498.46,-134.3"/>
</g>
<!-- FormsModule -->
<g id="node4" class="node">
<title>FormsModule</title>
<polygon fill="#8dd3c7" stroke="black" points="657.83,-84.8 654.83,-88.8 633.83,-88.8 630.83,-84.8 562.17,-84.8 562.17,-48.8 657.83,-48.8 657.83,-84.8"/>
<text text-anchor="middle" x="610" y="-62.6" font-family="Times,serif" font-size="14.00">FormsModule</text>
</g>
<!-- FormsModule&#45;&gt;SearchPageModule -->
<g id="edge3" class="edge">
<title>FormsModule&#45;&gt;SearchPageModule</title>
<path fill="none" stroke="black" d="M610,-84.82C610,-102.17 610,-125.8 610,-125.8 610,-125.8 498.55,-125.8 498.55,-125.8"/>
<polygon fill="black" stroke="black" points="498.55,-122.3 488.55,-125.8 498.55,-129.3 498.55,-122.3"/>
</g>
<!-- IonicModule -->
<g id="node5" class="node">
<title>IonicModule</title>
<polygon fill="#8dd3c7" stroke="black" points="544.32,-84.8 541.32,-88.8 520.32,-88.8 517.32,-84.8 455.68,-84.8 455.68,-48.8 544.32,-48.8 544.32,-84.8"/>
<text text-anchor="middle" x="500" y="-62.6" font-family="Times,serif" font-size="14.00">IonicModule</text>
</g>
<!-- IonicModule&#45;&gt;SearchPageModule -->
<g id="edge4" class="edge">
<title>IonicModule&#45;&gt;SearchPageModule</title>
<path fill="none" stroke="black" d="M472.13,-84.91C472.13,-84.91 472.13,-103.79 472.13,-103.79"/>
<polygon fill="black" stroke="black" points="468.63,-103.79 472.13,-113.79 475.63,-103.79 468.63,-103.79"/>
</g>
<!-- SearchPageRoutingModule -->
<g id="node6" class="node">
<title>SearchPageRoutingModule</title>
<polygon fill="#8dd3c7" stroke="black" points="437.97,-84.8 434.97,-88.8 413.97,-88.8 410.97,-84.8 268.03,-84.8 268.03,-48.8 437.97,-48.8 437.97,-84.8"/>
<text text-anchor="middle" x="353" y="-62.6" font-family="Times,serif" font-size="14.00">SearchPageRoutingModule</text>
</g>
<!-- SearchPageRoutingModule&#45;&gt;SearchPageModule -->
<g id="edge5" class="edge">
<title>SearchPageRoutingModule&#45;&gt;SearchPageModule</title>
<path fill="none" stroke="black" d="M400.78,-84.91C400.78,-84.91 400.78,-103.79 400.78,-103.79"/>
<polygon fill="black" stroke="black" points="397.28,-103.79 400.78,-113.79 404.28,-103.79 397.28,-103.79"/>
</g>
<!-- HomePageModule -->
<g id="node7" class="node">
<title>HomePageModule</title>
<polygon fill="#8dd3c7" stroke="black" points="250.47,-84.8 247.47,-88.8 226.47,-88.8 223.47,-84.8 129.53,-84.8 129.53,-48.8 250.47,-48.8 250.47,-84.8"/>
<text text-anchor="middle" x="190" y="-62.6" font-family="Times,serif" font-size="14.00">HomePageModule</text>
</g>
<!-- HomePageModule&#45;&gt;SearchPageModule -->
<g id="edge6" class="edge">
<title>HomePageModule&#45;&gt;SearchPageModule</title>
<path fill="none" stroke="black" d="M190,-84.82C190,-102.17 190,-125.8 190,-125.8 190,-125.8 353.38,-125.8 353.38,-125.8"/>
<polygon fill="black" stroke="black" points="353.38,-129.3 363.38,-125.8 353.38,-122.3 353.38,-129.3"/>
</g>
</g>
</svg>
