<svg width="191" height="53" viewBox="0 0 191 53" fill="none" xmlns="http://www.w3.org/2000/svg">
<g clip-path="url(#clip0_66:120)">
<rect width="191" height="51.0306" transform="translate(-0.000488281 0.984619)" fill="white"/>
<path d="M14.6613 41.2241C14.1248 41.5041 13.5532 41.644 12.9467 41.644C12.2002 41.5507 11.477 41.3641 10.7772 41.0842C10.1007 40.8042 9.5991 40.466 9.27251 40.0694C9.08588 38.9263 8.93425 37.8765 8.8176 36.9201C8.70096 35.9636 8.60765 35.0655 8.53767 34.2256C8.46768 33.3625 8.42102 32.546 8.3977 31.7762C8.37437 30.983 8.3627 30.1899 8.3627 29.3967C8.3627 28.3469 8.37437 27.2388 8.3977 26.0724C8.42102 24.906 8.44435 23.6696 8.46768 22.3632C8.51434 21.0335 8.54933 19.6221 8.57266 18.1291C8.59599 16.6128 8.60765 14.9681 8.60765 13.1952C8.91092 13.1952 9.36582 13.2885 9.97236 13.4751C10.5789 13.6384 11.1738 13.8367 11.757 14.07C12.3635 14.3033 12.9001 14.5482 13.3666 14.8048C13.8332 15.0381 14.0898 15.2364 14.1365 15.3997C13.9032 16.0529 13.6932 16.9044 13.5066 17.9542C13.3433 19.0039 13.2033 20.1704 13.0867 21.4534C12.9934 22.7365 12.9234 24.0895 12.8767 25.5125C12.8301 26.9356 12.8067 28.3469 12.8067 29.7466C12.8067 30.7964 12.8184 31.7412 12.8417 32.581C12.8651 33.3975 12.8884 34.144 12.9117 34.8205C12.9584 35.4737 13.0167 36.0919 13.0867 36.6751C13.1567 37.235 13.2383 37.7949 13.3316 38.3548C13.9848 36.3719 14.6963 34.3889 15.4662 32.406C16.2593 30.4231 17.0642 28.5219 17.8806 26.7023C18.7205 24.8593 19.5486 23.1447 20.3651 21.5584C21.1816 19.9721 21.9514 18.5957 22.6746 17.4293C23.4211 16.2395 24.086 15.3064 24.6692 14.6299C25.2524 13.93 25.7306 13.5568 26.1039 13.5101C26.3605 13.5568 26.6288 13.6618 26.9087 13.8251C27.212 13.965 27.4919 14.14 27.7485 14.3499C28.0051 14.5599 28.2384 14.7932 28.4484 15.0498C28.6583 15.3064 28.8216 15.563 28.9383 15.8196C28.0751 16.1229 27.142 16.8344 26.1389 17.9542C25.1591 19.0739 24.1676 20.427 23.1645 22.0133C22.1614 23.5763 21.1816 25.2909 20.2251 27.1572C19.292 29.0001 18.4405 30.8081 17.6707 32.581C16.9242 34.354 16.2827 36.0103 15.7461 37.5499C15.2096 39.0896 14.848 40.3143 14.6613 41.2241ZM24.1372 36.6401C24.1372 36.4302 24.1488 36.1736 24.1722 35.8703C24.2188 35.5437 24.2888 35.1238 24.3821 34.6106C24.4754 34.074 24.5921 33.4325 24.7321 32.686C24.8954 31.9395 25.0936 31.0413 25.3269 29.9916C25.3736 29.7583 25.4786 29.385 25.6419 28.8718C25.8052 28.3586 26.0151 27.822 26.2717 27.2622C26.5517 26.6789 26.8783 26.1191 27.2515 25.5825C27.6481 25.046 28.1147 24.6494 28.6512 24.3928C29.0478 24.4861 29.5727 24.731 30.2259 25.1276C30.8791 25.5009 31.4389 26.0258 31.9055 26.7023C31.369 27.3088 30.9141 27.9153 30.5408 28.5219C30.1909 29.1284 29.8643 29.7583 29.561 30.4115C29.2811 31.0647 29.0128 31.7412 28.7562 32.441C28.5229 33.1409 28.2546 33.8757 27.9514 34.6456C27.6947 35.2987 27.4615 35.9753 27.2515 36.6751C27.0416 37.3516 26.9249 37.9465 26.9016 38.4597C26.9016 38.8796 26.8899 39.1712 26.8666 39.3345C26.8666 39.5212 26.8083 39.6145 26.6916 39.6145C26.5983 39.6145 26.4117 39.5562 26.1318 39.4395C25.8518 39.3229 25.5602 39.1479 25.2569 38.9146C24.977 38.658 24.7204 38.3431 24.4871 37.9698C24.2538 37.5966 24.1372 37.1533 24.1372 36.6401ZM30.8207 21.4534C30.8207 21.3134 30.8557 21.1035 30.9257 20.8235C30.8091 20.7069 30.7041 20.5319 30.6108 20.2987C30.5408 20.0654 30.5058 19.8554 30.5058 19.6688C30.5058 19.4588 30.5291 19.1789 30.5758 18.829C30.6458 18.4557 30.7274 18.0591 30.8207 17.6392C30.9141 17.2193 31.0307 16.7878 31.1707 16.3445C31.3106 15.8779 31.4506 15.458 31.5906 15.0848C31.8705 15.0848 32.2088 15.1664 32.6054 15.3297C33.0253 15.4697 33.4452 15.668 33.8651 15.9246C34.285 16.1579 34.6699 16.4262 35.0198 16.7294C35.3698 17.0094 35.638 17.2776 35.8247 17.5343C35.568 17.7909 35.2298 18.1525 34.8099 18.619C34.39 19.0623 33.9817 19.5405 33.5851 20.0537C33.1886 20.5436 32.827 21.0102 32.5004 21.4534C32.1738 21.8966 31.9638 22.2116 31.8705 22.3982C31.5906 22.3515 31.3456 22.2349 31.1357 22.0483C30.9257 21.8383 30.8207 21.64 30.8207 21.4534ZM44.4443 25.0576C44.4209 25.5009 44.3393 25.9674 44.1993 26.4573C44.0827 26.9239 43.9311 27.3555 43.7444 27.752C43.5578 28.1253 43.3595 28.4402 43.1496 28.6968C42.9396 28.9535 42.7413 29.0818 42.5547 29.0818C42.2981 29.0584 42.1464 28.8835 42.0998 28.5569C42.0998 28.4869 42.1231 28.3819 42.1698 28.2419C42.2398 28.0786 42.3097 27.9037 42.3797 27.7171C42.4497 27.5304 42.508 27.3438 42.5547 27.1572C42.6247 26.9706 42.6597 26.8073 42.6597 26.6673C42.6597 26.3407 42.578 26.0724 42.4147 25.8625C42.2747 25.6292 42.0765 25.5125 41.8198 25.5125C40.8867 25.5125 40.1752 26.0957 39.6853 27.2622C39.1954 28.4286 38.9505 30.1432 38.9505 32.406C38.9505 32.6393 38.9621 32.7793 38.9855 32.826C39.4753 32.8026 39.9069 32.791 40.2802 32.791C40.6768 32.7676 41.0617 32.756 41.4349 32.756C41.4583 32.8026 41.4699 32.8959 41.4699 33.0359C41.4699 33.2459 41.4233 33.3975 41.3299 33.4908C40.7934 33.6074 40.3618 33.7124 40.0352 33.8057C39.732 33.8757 39.4987 33.9457 39.3354 34.0157C39.1721 34.0857 39.0671 34.1673 39.0204 34.2606C38.9971 34.3306 38.9855 34.4356 38.9855 34.5756C38.9855 34.7622 38.9855 34.9488 38.9855 35.1355C39.0088 35.3221 39.0204 35.5554 39.0204 35.8353C39.0204 37.7949 38.4839 39.3695 37.4108 40.5593C36.361 41.749 34.8913 42.4372 33.0017 42.6238C32.6752 42.6005 32.3369 42.5072 31.987 42.3439C31.637 42.1806 31.2988 41.9706 30.9722 41.714C30.6689 41.4574 30.4006 41.1658 30.1674 40.8392C29.9341 40.536 29.7708 40.221 29.6775 39.8944C29.6775 39.0079 29.8641 38.1681 30.2373 37.375C30.6106 36.5585 31.1122 35.847 31.742 35.2404C32.3952 34.6106 33.1534 34.109 34.0165 33.7358C34.903 33.3392 35.8595 33.1059 36.8859 33.0359C36.8859 32.4527 36.8276 31.8812 36.7109 31.3213C36.5943 30.7614 36.466 30.2248 36.326 29.7116C36.2094 29.1751 36.0927 28.6619 35.9761 28.172C35.8595 27.6587 35.8011 27.1572 35.8011 26.6673C35.8011 26.0374 35.9294 25.4192 36.1861 24.8127C36.4427 24.1828 36.7809 23.6113 37.2008 23.0981C37.6208 22.5615 38.1106 22.1066 38.6705 21.7333C39.2304 21.3601 39.8136 21.1035 40.4201 20.9635C40.6768 21.0335 41.015 21.2435 41.4349 21.5934C41.8782 21.92 42.3097 22.2932 42.7296 22.7131C43.1496 23.133 43.5228 23.5646 43.8494 24.0079C44.176 24.4278 44.3743 24.7777 44.4443 25.0576ZM32.8968 41.0142C33.4567 40.7809 33.9815 40.4426 34.4714 39.9994C34.9847 39.5562 35.4279 39.0546 35.8011 38.4947C36.1744 37.9348 36.466 37.34 36.676 36.7101C36.9092 36.0802 37.0259 35.462 37.0259 34.8555C36.5593 34.9255 36.0461 35.1471 35.4862 35.5204C34.9263 35.8703 34.4014 36.3019 33.9116 36.8151C33.4217 37.305 33.0134 37.8182 32.6868 38.3548C32.3602 38.8913 32.1969 39.3579 32.1969 39.7545C32.1969 40.2677 32.4302 40.6876 32.8968 41.0142ZM44.5039 36.6401C44.5039 36.4302 44.5155 36.1736 44.5389 35.8703C44.5855 35.5437 44.6555 35.1238 44.7488 34.6106C44.8421 34.074 44.9588 33.4325 45.0987 32.686C45.262 31.9395 45.4603 31.0413 45.6936 29.9916C45.7403 29.7583 45.8452 29.385 46.0085 28.8718C46.1718 28.3586 46.3818 27.822 46.6384 27.2622C46.9183 26.6789 47.2449 26.1191 47.6182 25.5825C48.0148 25.046 48.4813 24.6494 49.0179 24.3928C49.4145 24.4861 49.9394 24.731 50.5926 25.1276C51.2457 25.5009 51.8056 26.0258 52.2722 26.7023C51.7356 27.3088 51.2807 27.9153 50.9075 28.5219C50.5576 29.1284 50.231 29.7583 49.9277 30.4115C49.6478 31.0647 49.3795 31.7412 49.1229 32.441C48.8896 33.1409 48.6213 33.8757 48.318 34.6456C48.0614 35.2987 47.8282 35.9753 47.6182 36.6751C47.4082 37.3516 47.2916 37.9465 47.2683 38.4597C47.2683 38.8796 47.2566 39.1712 47.2333 39.3345C47.2333 39.5212 47.175 39.6145 47.0583 39.6145C46.965 39.6145 46.7784 39.5562 46.4984 39.4395C46.2185 39.3229 45.9269 39.1479 45.6236 38.9146C45.3437 38.658 45.0871 38.3431 44.8538 37.9698C44.6205 37.5966 44.5039 37.1533 44.5039 36.6401ZM51.1874 21.4534C51.1874 21.3134 51.2224 21.1035 51.2924 20.8235C51.1758 20.7069 51.0708 20.5319 50.9775 20.2987C50.9075 20.0654 50.8725 19.8554 50.8725 19.6688C50.8725 19.4588 50.8958 19.1789 50.9425 18.829C51.0125 18.4557 51.0941 18.0591 51.1874 17.6392C51.2807 17.2193 51.3974 16.7878 51.5373 16.3445C51.6773 15.8779 51.8173 15.458 51.9573 15.0848C52.2372 15.0848 52.5755 15.1664 52.972 15.3297C53.3919 15.4697 53.8119 15.668 54.2318 15.9246C54.6517 16.1579 55.0366 16.4262 55.3865 16.7294C55.7364 17.0094 56.0047 17.2776 56.1913 17.5343C55.9347 17.7909 55.5965 18.1525 55.1766 18.619C54.7567 19.0623 54.3484 19.5405 53.9518 20.0537C53.5552 20.5436 53.1937 21.0102 52.8671 21.4534C52.5405 21.8966 52.3305 22.2116 52.2372 22.3982C51.9573 22.3515 51.7123 22.2349 51.5024 22.0483C51.2924 21.8383 51.1874 21.64 51.1874 21.4534ZM54.5639 25.5825C54.4473 25.4425 54.3423 25.1509 54.249 24.7077C54.1557 24.2411 54.109 23.8446 54.109 23.518C54.7156 23.5646 55.2988 23.6113 55.8586 23.6579C56.4185 23.6813 56.9317 23.7046 57.3983 23.7279C57.7482 23.0281 58.1215 22.3399 58.5181 21.6634C58.938 20.9635 59.3346 20.3337 59.7078 19.7738C60.1044 19.1906 60.466 18.7007 60.7926 18.3041C61.1425 17.9075 61.4108 17.6509 61.5974 17.5343C61.8307 17.5343 62.1223 17.5809 62.4722 17.6742C62.8455 17.7442 63.2187 17.8492 63.592 17.9892C63.9652 18.1058 64.3035 18.2341 64.6068 18.3741C64.91 18.514 65.12 18.654 65.2366 18.794C64.5368 19.6805 63.9302 20.5086 63.417 21.2784C62.9271 22.025 62.3906 22.8881 61.8074 23.8679C62.2739 23.8679 62.7405 23.8562 63.2071 23.8329C63.6969 23.8096 64.1868 23.7746 64.6767 23.7279C64.7934 23.8446 64.8867 23.9962 64.9567 24.1828C65.0267 24.3461 65.0617 24.5211 65.0617 24.7077C63.9186 25.1276 62.5305 25.3609 60.8976 25.4076C60.3143 26.5273 59.7895 27.6471 59.3229 28.7668C58.8797 29.8633 58.4947 30.9247 58.1681 31.9511C57.8649 32.9776 57.6199 33.9457 57.4333 34.8555C57.27 35.7653 57.1884 36.5818 57.1884 37.305C57.1884 38.3314 57.5733 38.903 58.3431 39.0196C59.043 38.9263 59.7078 38.7513 60.3377 38.4947C60.9675 38.2381 61.5274 37.9115 62.0173 37.5149C62.1573 37.7249 62.2389 37.8999 62.2623 38.0398C62.1223 38.2498 61.8773 38.4947 61.5274 38.7747C61.2008 39.0546 60.8392 39.3229 60.4427 39.5795C60.0461 39.8594 59.6612 40.0927 59.2879 40.2793C58.9146 40.466 58.6347 40.5709 58.4481 40.5943C57.8649 40.5709 57.2817 40.4426 56.6985 40.2094C56.1153 39.9761 55.5787 39.6845 55.0888 39.3345C54.6222 38.9846 54.2373 38.5997 53.9341 38.1798C53.6308 37.7366 53.4792 37.305 53.4792 36.8851C53.4792 36.3252 53.5491 35.6253 53.6891 34.7855C53.8524 33.9224 54.074 32.9892 54.354 31.9861C54.6339 30.983 54.9605 29.9332 55.3338 28.8368C55.707 27.7404 56.1153 26.6556 56.5585 25.5825H54.5639Z" fill="#9D7BBF"/>
<path d="M97.0743 19.7038C97.0743 20.8235 96.8176 21.885 96.3044 22.8881C95.8145 23.8679 95.1263 24.7544 94.2399 25.5475C93.3534 26.3174 92.3153 26.9706 91.1255 27.5071C89.9358 28.0437 88.6411 28.4052 87.2414 28.5919C87.5913 29.6416 88.0112 30.7264 88.5011 31.8462C89.0143 32.9426 89.5626 34.004 90.1458 35.0305C90.729 36.0569 91.3355 37.0017 91.9654 37.8649C92.5952 38.728 93.2134 39.4395 93.82 39.9994C93.7033 40.2327 93.5284 40.466 93.2951 40.6992C93.0851 40.9325 92.8285 41.1425 92.5252 41.3291C92.2453 41.5391 91.942 41.7024 91.6154 41.819C91.3122 41.959 91.0206 42.029 90.7406 42.029C90.2274 42.029 89.7375 41.784 89.2709 41.2941C88.8044 40.8042 88.3262 40.0344 87.8363 38.9846C87.3697 37.9115 86.8681 36.5351 86.3316 34.8555C85.8184 33.1525 85.2468 31.1113 84.617 28.7318C84.3603 28.7318 84.1037 28.7318 83.8471 28.7318C83.5905 28.7318 83.3922 28.7085 83.2522 28.6619C83.089 28.5685 82.914 28.4052 82.7274 28.172C82.0975 29.525 81.5376 30.7964 81.0477 31.9861C80.5578 33.1759 80.1146 34.3306 79.718 35.4504C79.3448 36.5468 79.0065 37.6199 78.7032 38.6697C78.4233 39.6961 78.1783 40.7459 77.9684 41.819C77.1752 41.6324 76.487 41.2941 75.9038 40.8042C75.3206 40.3143 74.7724 39.6261 74.2592 38.7397C74.3525 38.5297 74.4458 38.3314 74.5391 38.1448C74.6558 37.9348 74.7957 37.6549 74.959 37.305C75.1223 36.9317 75.3206 36.4652 75.5539 35.9053C75.8105 35.3454 76.1371 34.5989 76.5337 33.6658C76.9536 32.7326 77.4435 31.5896 78.0034 30.2365C78.5866 28.8835 79.2864 27.2388 80.1029 25.3026C80.4762 24.4394 80.7911 23.6813 81.0477 23.0281C81.3277 22.3749 81.5726 21.7567 81.7826 21.1735C81.9925 20.5669 82.1791 19.9721 82.3424 19.3889C82.5291 18.7823 82.7157 18.0941 82.9023 17.3243C81.8292 17.6976 80.8261 18.1175 79.893 18.584C78.9832 19.0273 78.225 19.5055 77.6185 20.0187C77.4085 19.8787 77.1869 19.6688 76.9536 19.3889C76.7437 19.1089 76.5454 18.8056 76.3587 18.4791C76.1721 18.1291 76.0088 17.7792 75.8688 17.4293C75.7289 17.0794 75.6472 16.7644 75.6239 16.4845C76.3237 16.0179 77.1752 15.5863 78.1783 15.1898C79.2048 14.7932 80.2896 14.4549 81.4326 14.175C82.5757 13.8717 83.7421 13.6384 84.9319 13.4751C86.1216 13.3118 87.2297 13.2302 88.2562 13.2302C91.0556 13.2302 93.2251 13.8134 94.7648 14.9798C96.3044 16.1229 97.0743 17.6976 97.0743 19.7038ZM88.5361 16.7644C88.3728 16.9744 88.1162 17.3943 87.7663 18.0242C87.4163 18.654 87.0081 19.4122 86.5415 20.2987C86.0983 21.1618 85.6201 22.1066 85.1068 23.133C84.617 24.1595 84.1387 25.1743 83.6722 26.1774C85.4218 26.1774 87.0314 26.0141 88.5011 25.6875C89.9708 25.3609 91.2422 24.906 92.3153 24.3228C93.3884 23.7163 94.2165 23.0164 94.7998 22.2232C95.4063 21.4068 95.7096 20.5086 95.7096 19.5288C95.7096 18.3624 95.2896 17.4759 94.4498 16.8694C93.61 16.2395 92.3153 15.9246 90.5657 15.9246C90.1691 15.9246 89.7725 15.9479 89.3759 15.9946C88.9793 16.0179 88.5594 16.0529 88.1162 16.0996L88.5361 16.7644ZM99.959 40.2094C98.6292 40.0694 97.5678 39.4862 96.7746 38.4597C95.9815 37.4333 95.5849 36.1269 95.5849 34.5406C95.5849 33.6074 95.7249 32.6393 96.0048 31.6362C96.2847 30.6331 96.6813 29.665 97.1945 28.7318C97.7078 27.7754 98.3143 26.8772 99.0142 26.0374C99.714 25.1976 100.472 24.4744 101.289 23.8679C102.572 22.9114 103.773 22.4332 104.893 22.4332C105.639 22.8298 106.374 23.6579 107.097 24.9177C107.214 24.9177 107.319 24.9177 107.412 24.9177C107.506 24.8943 107.611 24.8827 107.727 24.8827C108.964 24.8827 109.582 25.9791 109.582 28.172C109.582 29.6416 109.337 31.0413 108.847 32.371C108.38 33.6774 107.716 34.8672 106.852 35.9403C106.013 37.0134 104.998 37.9232 103.808 38.6697C102.642 39.3929 101.359 39.9061 99.959 40.2094ZM101.744 29.1867C101.347 29.7233 100.974 30.3065 100.624 30.9364C100.274 31.5662 99.9706 32.2078 99.714 32.8609C99.4574 33.4908 99.2591 34.109 99.1191 34.7155C98.9792 35.2987 98.9092 35.8236 98.9092 36.2902C98.9092 36.8501 99.0025 37.3866 99.1891 37.8999C99.3757 38.4131 99.5857 38.7047 99.819 38.7747C100.869 38.5414 101.825 38.1098 102.688 37.4799C103.575 36.8268 104.333 36.0219 104.963 35.0655C105.616 34.109 106.118 33.0242 106.468 31.8112C106.841 30.5981 107.027 29.3034 107.027 27.927C107.027 27.3205 106.992 26.8422 106.922 26.4923C106.852 26.1424 106.736 25.8391 106.573 25.5825C105.546 25.8858 104.625 26.3757 103.808 27.0522C103.015 27.7287 102.327 28.4402 101.744 29.1867ZM123.348 25.0576C123.325 25.5009 123.243 25.9674 123.103 26.4573C122.987 26.9239 122.835 27.3555 122.648 27.752C122.462 28.1253 122.263 28.4402 122.053 28.6968C121.843 28.9535 121.645 29.0818 121.459 29.0818C121.202 29.0584 121.05 28.8835 121.004 28.5569C121.004 28.4869 121.027 28.3819 121.074 28.2419C121.144 28.0786 121.214 27.9037 121.284 27.7171C121.354 27.5304 121.412 27.3438 121.459 27.1572C121.529 26.9706 121.563 26.8073 121.563 26.6673C121.563 26.3407 121.482 26.0724 121.319 25.8625C121.179 25.6292 120.98 25.5125 120.724 25.5125C119.791 25.5125 119.079 26.0957 118.589 27.2622C118.099 28.4286 117.854 30.1432 117.854 32.406C117.854 32.6393 117.866 32.7793 117.889 32.826C118.379 32.8026 118.811 32.791 119.184 32.791C119.581 32.7676 119.966 32.756 120.339 32.756C120.362 32.8026 120.374 32.8959 120.374 33.0359C120.374 33.2459 120.327 33.3975 120.234 33.4908C119.697 33.6074 119.266 33.7124 118.939 33.8057C118.636 33.8757 118.403 33.9457 118.239 34.0157C118.076 34.0857 117.971 34.1673 117.924 34.2606C117.901 34.3306 117.889 34.4356 117.889 34.5756C117.889 34.7622 117.889 34.9488 117.889 35.1355C117.913 35.3221 117.924 35.5554 117.924 35.8353C117.924 37.7949 117.388 39.3695 116.315 40.5593C115.265 41.749 113.795 42.4372 111.906 42.6238C111.579 42.6005 111.241 42.5072 110.891 42.3439C110.541 42.1806 110.203 41.9706 109.876 41.714C109.573 41.4574 109.304 41.1658 109.071 40.8392C108.838 40.536 108.675 40.221 108.581 39.8944C108.581 39.0079 108.768 38.1681 109.141 37.375C109.514 36.5585 110.016 35.847 110.646 35.2404C111.299 34.6106 112.057 34.109 112.92 33.7358C113.807 33.3392 114.763 33.1059 115.79 33.0359C115.79 32.4527 115.731 31.8812 115.615 31.3213C115.498 30.7614 115.37 30.2248 115.23 29.7116C115.113 29.1751 114.997 28.6619 114.88 28.172C114.763 27.6587 114.705 27.1572 114.705 26.6673C114.705 26.0374 114.833 25.4192 115.09 24.8127C115.347 24.1828 115.685 23.6113 116.105 23.0981C116.525 22.5615 117.014 22.1066 117.574 21.7333C118.134 21.3601 118.717 21.1035 119.324 20.9635C119.581 21.0335 119.919 21.2435 120.339 21.5934C120.782 21.92 121.214 22.2932 121.633 22.7131C122.053 23.133 122.427 23.5646 122.753 24.0079C123.08 24.4278 123.278 24.7777 123.348 25.0576ZM111.801 41.0142C112.36 40.7809 112.885 40.4426 113.375 39.9994C113.888 39.5562 114.332 39.0546 114.705 38.4947C115.078 37.9348 115.37 37.34 115.58 36.7101C115.813 36.0802 115.93 35.462 115.93 34.8555C115.463 34.9255 114.95 35.1471 114.39 35.5204C113.83 35.8703 113.305 36.3019 112.815 36.8151C112.325 37.305 111.917 37.8182 111.591 38.3548C111.264 38.8913 111.101 39.3579 111.101 39.7545C111.101 40.2677 111.334 40.6876 111.801 41.0142ZM123.443 35.6953C123.443 34.8555 123.653 33.6891 124.073 32.1961C124.516 30.7031 125.087 29.0701 125.787 27.2971C126.487 25.5242 127.28 23.6929 128.167 21.8033C129.053 19.9137 129.94 18.1525 130.826 16.5195C131.736 14.8865 132.599 13.4751 133.416 12.2854C134.255 11.0957 134.967 10.2908 135.55 9.87092C135.877 9.89424 136.227 10.0342 136.6 10.2908C136.996 10.5474 137.358 10.8624 137.685 11.2356C138.011 11.5855 138.279 11.9588 138.489 12.3554C138.723 12.752 138.839 13.1135 138.839 13.4401C137.79 14.28 136.716 15.3647 135.62 16.6944C134.547 18.0008 133.521 19.4472 132.541 21.0335C131.561 22.5965 130.651 24.2645 129.811 26.0374C128.995 27.787 128.307 29.5133 127.747 31.2163C128.493 29.9332 129.275 28.7668 130.091 27.7171C130.908 26.6673 131.724 25.7691 132.541 25.0226C133.357 24.2761 134.15 23.7046 134.92 23.308C135.713 22.8881 136.46 22.6665 137.16 22.6432C138.186 23.3897 138.699 24.3811 138.699 25.6175C138.699 26.364 138.548 27.1222 138.244 27.892C137.941 28.6385 137.533 29.3384 137.02 29.9916C136.53 30.6214 135.958 31.1696 135.305 31.6362C134.675 32.0794 134.01 32.371 133.311 32.511C133.544 33.3275 133.835 34.1557 134.185 34.9955C134.559 35.8353 134.99 36.6518 135.48 37.445C135.993 38.2381 136.565 38.973 137.195 39.6495C137.848 40.326 138.583 40.8975 139.399 41.3641C139.283 41.5974 139.108 41.8307 138.874 42.064C138.641 42.2972 138.361 42.4955 138.035 42.6588C137.708 42.8455 137.346 42.9854 136.95 43.0787C136.577 43.1954 136.203 43.2537 135.83 43.2537C135.2 43.2537 134.605 42.9388 134.045 42.3089C133.509 41.679 133.019 40.7692 132.576 39.5795C132.226 38.623 131.888 37.4799 131.561 36.1502C131.234 34.8205 130.943 33.4325 130.686 31.9861C131.013 31.7762 131.421 31.4729 131.911 31.0763C132.401 30.6564 132.914 30.1782 133.451 29.6416C135.503 27.6587 136.53 25.9441 136.53 24.4978C136.53 24.3111 136.402 24.2178 136.145 24.2178C135.678 24.2411 135.13 24.4628 134.5 24.8827C133.87 25.3026 133.194 25.8858 132.471 26.6323C131.771 27.3788 131.048 28.2536 130.301 29.2567C129.578 30.2598 128.878 31.3446 128.202 32.511C127.922 32.9776 127.665 33.5141 127.432 34.1207C127.199 34.7272 126.989 35.3571 126.802 36.0103C126.639 36.6401 126.51 37.27 126.417 37.8999C126.324 38.5297 126.277 39.1129 126.277 39.6495C126.277 39.9761 126.312 40.2443 126.382 40.4543C125.659 40.3843 125.216 40.1977 125.052 39.8944C124.866 39.6145 124.702 39.3812 124.562 39.1946C124.446 39.0313 124.318 38.8913 124.178 38.7747C123.968 38.6114 123.793 38.2614 123.653 37.7249C123.513 37.1883 123.443 36.5118 123.443 35.6953ZM140.801 36.6401C140.801 36.4302 140.813 36.1736 140.836 35.8703C140.883 35.5437 140.953 35.1238 141.046 34.6106C141.14 34.074 141.256 33.4325 141.396 32.686C141.56 31.9395 141.758 31.0413 141.991 29.9916C142.038 29.7583 142.143 29.385 142.306 28.8718C142.469 28.3586 142.679 27.822 142.936 27.2622C143.216 26.6789 143.542 26.1191 143.916 25.5825C144.312 25.046 144.779 24.6494 145.315 24.3928C145.712 24.4861 146.237 24.731 146.89 25.1276C147.543 25.5009 148.103 26.0258 148.57 26.7023C148.033 27.3088 147.578 27.9153 147.205 28.5219C146.855 29.1284 146.528 29.7583 146.225 30.4115C145.945 31.0647 145.677 31.7412 145.42 32.441C145.187 33.1409 144.919 33.8757 144.616 34.6456C144.359 35.2987 144.126 35.9753 143.916 36.6751C143.706 37.3516 143.589 37.9465 143.566 38.4597C143.566 38.8796 143.554 39.1712 143.531 39.3345C143.531 39.5212 143.472 39.6145 143.356 39.6145C143.263 39.6145 143.076 39.5562 142.796 39.4395C142.516 39.3229 142.224 39.1479 141.921 38.9146C141.641 38.658 141.385 38.3431 141.151 37.9698C140.918 37.5966 140.801 37.1533 140.801 36.6401ZM147.485 21.4534C147.485 21.3134 147.52 21.1035 147.59 20.8235C147.473 20.7069 147.368 20.5319 147.275 20.2987C147.205 20.0654 147.17 19.8554 147.17 19.6688C147.17 19.4588 147.193 19.1789 147.24 18.829C147.31 18.4557 147.392 18.0591 147.485 17.6392C147.578 17.2193 147.695 16.7878 147.835 16.3445C147.975 15.8779 148.115 15.458 148.255 15.0848C148.535 15.0848 148.873 15.1664 149.27 15.3297C149.689 15.4697 150.109 15.668 150.529 15.9246C150.949 16.1579 151.334 16.4262 151.684 16.7294C152.034 17.0094 152.302 17.2776 152.489 17.5343C152.232 17.7909 151.894 18.1525 151.474 18.619C151.054 19.0623 150.646 19.5405 150.249 20.0537C149.853 20.5436 149.491 21.0102 149.165 21.4534C148.838 21.8966 148.628 22.2116 148.535 22.3982C148.255 22.3515 148.01 22.2349 147.8 22.0483C147.59 21.8383 147.485 21.64 147.485 21.4534ZM149.001 36.7451C149.001 35.7187 149.246 34.284 149.736 32.441C150.226 30.5748 150.914 28.4052 151.801 25.9324C153.247 21.99 154.6 18.7123 155.86 16.0996C157.143 13.4635 158.391 11.4106 159.604 9.9409C159.884 9.98756 160.222 10.1042 160.619 10.2908C161.039 10.4775 161.447 10.6874 161.843 10.9207C162.24 11.1306 162.59 11.3523 162.893 11.5855C163.22 11.8188 163.43 12.0055 163.523 12.1454C161.703 14.2916 160.105 16.6011 158.729 19.0739C157.353 21.5467 156.093 24.3811 154.95 27.5771C153.97 30.3298 153.224 32.8143 152.71 35.0305C152.197 37.2233 151.94 39.0546 151.94 40.5243C151.94 40.9209 151.94 41.1658 151.94 41.2591C151.94 41.3524 151.952 41.4458 151.975 41.5391C151.649 41.4924 151.369 41.4108 151.136 41.2941C150.902 41.1775 150.751 41.0375 150.681 40.8742C150.634 40.7576 150.506 40.5826 150.296 40.3493C150.086 40.1394 149.899 39.9761 149.736 39.8594C149.526 39.7195 149.351 39.3579 149.211 38.7747C149.071 38.1681 149.001 37.4916 149.001 36.7451ZM164.797 22.6432C165.264 22.6432 165.801 22.7831 166.407 23.0631C167.014 23.343 167.55 23.7046 168.017 24.1478C167.9 23.2147 167.748 22.3399 167.562 21.5234C167.399 20.6836 167.142 19.8204 166.792 18.934C166.465 18.0475 166.022 17.0794 165.462 16.0296C164.902 14.9798 164.203 13.7784 163.363 12.4254C163.433 12.2154 163.584 11.9705 163.818 11.6905C164.074 11.4106 164.354 11.154 164.657 10.9207C164.984 10.6641 165.311 10.4425 165.637 10.2558C165.987 10.0692 166.314 9.95256 166.617 9.90591C167.27 10.6291 167.888 11.5389 168.472 12.6353C169.055 13.7084 169.568 14.8748 170.011 16.1346C170.455 17.371 170.793 18.654 171.026 19.9837C171.283 21.3134 171.411 22.5848 171.411 23.7979C171.411 25.011 171.271 26.259 170.991 27.5421C170.735 28.8251 170.361 30.0849 169.871 31.3213C169.405 32.5343 168.857 33.6891 168.227 34.7855C167.597 35.882 166.909 36.8617 166.162 37.7249C165.439 38.588 164.681 39.2879 163.888 39.8244C163.094 40.3843 162.301 40.7342 161.508 40.8742C159.899 40.6876 158.662 40.1627 157.799 39.2996C156.959 38.4597 156.539 37.2933 156.539 35.8003C156.539 35.0071 156.656 34.144 156.889 33.2109C157.146 32.2777 157.472 31.3563 157.869 30.4465C158.289 29.5133 158.767 28.6152 159.304 27.752C159.864 26.8656 160.447 26.0724 161.053 25.3726C161.683 24.6727 162.313 24.0778 162.943 23.5879C163.573 23.0981 164.191 22.7831 164.797 22.6432ZM161.228 39.4745C162.045 39.1946 162.861 38.5764 163.678 37.6199C164.494 36.6635 165.229 35.5437 165.882 34.2606C166.535 32.9543 167.06 31.5662 167.457 30.0965C167.877 28.6035 168.087 27.1688 168.087 25.7925C168.087 25.3959 168.087 25.1509 168.087 25.0576C168.087 24.9643 168.075 24.871 168.052 24.7777C167.492 25.011 166.897 25.4076 166.267 25.9674C165.637 26.5273 165.007 27.1805 164.378 27.927C163.748 28.6502 163.153 29.4433 162.593 30.3065C162.033 31.1696 161.531 32.0328 161.088 32.8959C160.645 33.7591 160.295 34.5872 160.038 35.3804C159.782 36.1736 159.654 36.8734 159.654 37.4799C159.654 38.6464 160.178 39.3112 161.228 39.4745ZM184.835 24.4978C184.741 25.9441 184.485 27.1922 184.065 28.2419C183.645 29.2684 183.038 30.1782 182.245 30.9714C181.475 31.7412 180.531 32.441 179.411 33.0709C178.291 33.7008 176.985 34.3073 175.492 34.8905C175.492 35.0305 175.48 35.1821 175.457 35.3454C175.457 35.4854 175.457 35.637 175.457 35.8003C175.457 36.1036 175.48 36.4185 175.527 36.7451C175.573 37.0717 175.655 37.375 175.772 37.6549C175.888 37.9348 176.052 38.1681 176.262 38.3548C176.472 38.5181 176.74 38.5997 177.066 38.5997C177.696 38.5997 178.314 38.4597 178.921 38.1798C179.528 37.8999 180.099 37.5616 180.636 37.165C181.196 36.7451 181.709 36.3019 182.175 35.8353C182.665 35.3454 183.097 34.9022 183.47 34.5056C183.703 34.7155 183.902 34.9138 184.065 35.1005C183.015 36.5002 181.86 37.6666 180.601 38.5997C179.364 39.5095 178.186 40.0927 177.066 40.3493C175.457 40.1627 174.197 39.5795 173.287 38.5997C172.401 37.5966 171.958 36.3952 171.958 34.9955C171.958 34.039 172.086 33.0709 172.342 32.0911C172.622 31.088 172.996 30.1315 173.462 29.2217C173.952 28.2886 174.512 27.4138 175.142 26.5973C175.795 25.7808 176.483 25.0693 177.206 24.4628C177.953 23.8562 178.711 23.378 179.481 23.0281C180.274 22.6781 181.056 22.5032 181.825 22.5032C182.898 22.6432 183.902 23.308 184.835 24.4978ZM182.42 25.6525C181.79 25.7458 181.137 26.0024 180.461 26.4223C179.784 26.8422 179.143 27.4021 178.536 28.102C177.953 28.8018 177.416 29.6183 176.926 30.5514C176.437 31.4846 176.052 32.4877 175.772 33.5608C177.638 32.6277 179.189 31.4846 180.426 30.1315C181.662 28.7552 182.327 27.2622 182.42 25.6525Z" fill="#4D2D6C"/>
</g>
<defs>
<clipPath id="clip0_66:120">
<rect width="191" height="51.0306" fill="white" transform="translate(-0.000488281 0.984619)"/>
</clipPath>
</defs>
</svg>
