<?xml version="1.0" encoding="UTF-8" standalone="no"?>
<!DOCTYPE svg PUBLIC "-//W3C//DTD SVG 1.1//EN"
 "http://www.w3.org/Graphics/SVG/1.1/DTD/svg11.dtd">
<!-- Generated by graphviz version 2.47.3 (20210619.1520)
 -->
<!-- Title: dependencies Pages: 1 -->
<svg width="1379pt" height="247pt"
 viewBox="0.00 0.00 1379.00 246.80" xmlns="http://www.w3.org/2000/svg" xmlns:xlink="http://www.w3.org/1999/xlink">
<g id="graph0" class="graph" transform="scale(1 1) rotate(0) translate(4 242.8)">
<title>dependencies</title>
<polygon fill="white" stroke="transparent" points="-4,4 -4,-242.8 1375,-242.8 1375,4 -4,4"/>
<text text-anchor="middle" x="685.5" y="-8.2" font-family="sans-serif" font-size="14.00">dependencies</text>
<g id="clust1" class="cluster">
<title>cluster_AppModule</title>
<polygon fill="none" stroke="black" stroke-dasharray="1,5" points="8,-32.8 8,-230.8 1363,-230.8 1363,-32.8 8,-32.8"/>
</g>
<g id="clust2" class="cluster">
<title>cluster_AppModule_declarations</title>
<polygon fill="none" stroke="black" points="1233,-40.8 1233,-92.8 1355,-92.8 1355,-40.8 1233,-40.8"/>
</g>
<g id="clust4" class="cluster">
<title>cluster_AppModule_imports</title>
<polygon fill="none" stroke="black" points="554,-40.8 554,-92.8 1225,-92.8 1225,-40.8 554,-40.8"/>
</g>
<g id="clust6" class="cluster">
<title>cluster_AppModule_bootstrap</title>
<polygon fill="none" stroke="black" points="803,-170.8 803,-222.8 927,-222.8 927,-170.8 803,-170.8"/>
</g>
<g id="clust7" class="cluster">
<title>cluster_AppModule_providers</title>
<polygon fill="none" stroke="black" points="16,-40.8 16,-92.8 546,-92.8 546,-40.8 16,-40.8"/>
</g>
<!-- AppComponent -->
<g id="node1" class="node">
<title>AppComponent</title>
<polygon fill="#ffffb3" stroke="black" points="1346.94,-84.8 1241.06,-84.8 1241.06,-48.8 1346.94,-48.8 1346.94,-84.8"/>
<text text-anchor="middle" x="1294" y="-62.6" font-family="Times,serif" font-size="14.00">AppComponent</text>
</g>
<!-- AppModule -->
<g id="node2" class="node">
<title>AppModule</title>
<polygon fill="#8dd3c7" stroke="black" points="906.66,-149.8 903.66,-153.8 882.66,-153.8 879.66,-149.8 823.34,-149.8 823.34,-113.8 906.66,-113.8 906.66,-149.8"/>
<text text-anchor="middle" x="865" y="-127.6" font-family="Times,serif" font-size="14.00">AppModule</text>
</g>
<!-- AppComponent&#45;&gt;AppModule -->
<g id="edge1" class="edge">
<title>AppComponent&#45;&gt;AppModule</title>
<path fill="none" stroke="black" d="M1294,-85.09C1294,-107.01 1294,-140.8 1294,-140.8 1294,-140.8 916.92,-140.8 916.92,-140.8"/>
<polygon fill="black" stroke="black" points="916.92,-137.3 906.92,-140.8 916.92,-144.3 916.92,-137.3"/>
</g>
<!-- AppComponent  -->
<g id="node8" class="node">
<title>AppComponent </title>
<polygon fill="#80b1d3" stroke="black" points="919.44,-214.8 810.56,-214.8 810.56,-178.8 919.44,-178.8 919.44,-214.8"/>
<text text-anchor="middle" x="865" y="-192.6" font-family="Times,serif" font-size="14.00">AppComponent </text>
</g>
<!-- AppModule&#45;&gt;AppComponent  -->
<g id="edge7" class="edge">
<title>AppModule&#45;&gt;AppComponent </title>
<path fill="none" stroke="black" stroke-dasharray="1,5" d="M865,-149.91C865,-149.91 865,-168.79 865,-168.79"/>
<polygon fill="black" stroke="black" points="861.5,-168.79 865,-178.79 868.5,-168.79 861.5,-168.79"/>
</g>
<!-- BrowserModule -->
<g id="node3" class="node">
<title>BrowserModule</title>
<polygon fill="#8dd3c7" stroke="black" points="1217.47,-84.8 1214.47,-88.8 1193.47,-88.8 1190.47,-84.8 1110.53,-84.8 1110.53,-48.8 1217.47,-48.8 1217.47,-84.8"/>
<text text-anchor="middle" x="1164" y="-62.6" font-family="Times,serif" font-size="14.00">BrowserModule</text>
</g>
<!-- BrowserModule&#45;&gt;AppModule -->
<g id="edge2" class="edge">
<title>BrowserModule&#45;&gt;AppModule</title>
<path fill="none" stroke="black" d="M1164,-84.91C1164,-104.14 1164,-131.8 1164,-131.8 1164,-131.8 916.89,-131.8 916.89,-131.8"/>
<polygon fill="black" stroke="black" points="916.89,-128.3 906.89,-131.8 916.89,-135.3 916.89,-128.3"/>
</g>
<!-- IonicModule.forRoot() -->
<g id="node4" class="node">
<title>IonicModule.forRoot()</title>
<polygon fill="#8dd3c7" stroke="black" points="1092.19,-84.8 1089.19,-88.8 1068.19,-88.8 1065.19,-84.8 947.81,-84.8 947.81,-48.8 1092.19,-48.8 1092.19,-84.8"/>
<text text-anchor="middle" x="1020" y="-62.6" font-family="Times,serif" font-size="14.00">IonicModule.forRoot()</text>
</g>
<!-- IonicModule.forRoot()&#45;&gt;AppModule -->
<g id="edge3" class="edge">
<title>IonicModule.forRoot()&#45;&gt;AppModule</title>
<path fill="none" stroke="black" d="M1020,-84.83C1020,-101.2 1020,-122.8 1020,-122.8 1020,-122.8 916.95,-122.8 916.95,-122.8"/>
<polygon fill="black" stroke="black" points="916.95,-119.3 906.95,-122.8 916.95,-126.3 916.95,-119.3"/>
</g>
<!-- AppRoutingModule -->
<g id="node5" class="node">
<title>AppRoutingModule</title>
<polygon fill="#8dd3c7" stroke="black" points="929.27,-84.8 926.27,-88.8 905.27,-88.8 902.27,-84.8 800.73,-84.8 800.73,-48.8 929.27,-48.8 929.27,-84.8"/>
<text text-anchor="middle" x="865" y="-62.6" font-family="Times,serif" font-size="14.00">AppRoutingModule</text>
</g>
<!-- AppRoutingModule&#45;&gt;AppModule -->
<g id="edge4" class="edge">
<title>AppRoutingModule&#45;&gt;AppModule</title>
<path fill="none" stroke="black" d="M865,-84.91C865,-84.91 865,-103.79 865,-103.79"/>
<polygon fill="black" stroke="black" points="861.5,-103.79 865,-113.79 868.5,-103.79 861.5,-103.79"/>
</g>
<!-- HttpClientModule -->
<g id="node6" class="node">
<title>HttpClientModule</title>
<polygon fill="#8dd3c7" stroke="black" points="782.16,-84.8 779.16,-88.8 758.16,-88.8 755.16,-84.8 663.84,-84.8 663.84,-48.8 782.16,-48.8 782.16,-84.8"/>
<text text-anchor="middle" x="723" y="-62.6" font-family="Times,serif" font-size="14.00">HttpClientModule</text>
</g>
<!-- HttpClientModule&#45;&gt;AppModule -->
<g id="edge5" class="edge">
<title>HttpClientModule&#45;&gt;AppModule</title>
<path fill="none" stroke="black" d="M723,-84.83C723,-101.2 723,-122.8 723,-122.8 723,-122.8 813.16,-122.8 813.16,-122.8"/>
<polygon fill="black" stroke="black" points="813.16,-126.3 823.16,-122.8 813.16,-119.3 813.16,-126.3"/>
</g>
<!-- NgbModule -->
<g id="node7" class="node">
<title>NgbModule</title>
<polygon fill="#8dd3c7" stroke="black" points="645.66,-84.8 642.66,-88.8 621.66,-88.8 618.66,-84.8 562.34,-84.8 562.34,-48.8 645.66,-48.8 645.66,-84.8"/>
<text text-anchor="middle" x="604" y="-62.6" font-family="Times,serif" font-size="14.00">NgbModule</text>
</g>
<!-- NgbModule&#45;&gt;AppModule -->
<g id="edge6" class="edge">
<title>NgbModule&#45;&gt;AppModule</title>
<path fill="none" stroke="black" d="M604,-84.91C604,-104.14 604,-131.8 604,-131.8 604,-131.8 813.07,-131.8 813.07,-131.8"/>
<polygon fill="black" stroke="black" points="813.07,-135.3 823.07,-131.8 813.07,-128.3 813.07,-135.3"/>
</g>
<!-- { provide: RouteReuseStrategy, useClass: IonicRouteStrategy } -->
<g id="node9" class="node">
<title>{ provide: RouteReuseStrategy, useClass: IonicRouteStrategy }</title>
<ellipse fill="#fdb462" stroke="black" cx="281" cy="-66.8" rx="257.27" ry="18"/>
<text text-anchor="middle" x="281" y="-62.6" font-family="Times,serif" font-size="14.00">{ provide: RouteReuseStrategy, useClass: IonicRouteStrategy }</text>
</g>
<!-- { provide: RouteReuseStrategy, useClass: IonicRouteStrategy }&#45;&gt;AppModule -->
<g id="edge8" class="edge">
<title>{ provide: RouteReuseStrategy, useClass: IonicRouteStrategy }&#45;&gt;AppModule</title>
<path fill="none" stroke="black" d="M281,-85.09C281,-107.01 281,-140.8 281,-140.8 281,-140.8 813,-140.8 813,-140.8"/>
<polygon fill="black" stroke="black" points="813,-144.3 823,-140.8 813,-137.3 813,-144.3"/>
</g>
</g>
</svg>
