<?xml version="1.0" encoding="UTF-8" standalone="no"?>
<!DOCTYPE svg PUBLIC "-//W3C//DTD SVG 1.1//EN"
 "http://www.w3.org/Graphics/SVG/1.1/DTD/svg11.dtd">
<!-- Generated by graphviz version 2.47.3 (20210619.1520)
 -->
<!-- Title: dependencies Pages: 1 -->
<svg width="655pt" height="174pt"
 viewBox="0.00 0.00 655.00 173.80" xmlns="http://www.w3.org/2000/svg" xmlns:xlink="http://www.w3.org/1999/xlink">
<g id="graph0" class="graph" transform="scale(1 1) rotate(0) translate(4 169.8)">
<title>dependencies</title>
<polygon fill="white" stroke="transparent" points="-4,4 -4,-169.8 651,-169.8 651,4 -4,4"/>
<text text-anchor="middle" x="323.5" y="-8.2" font-family="sans-serif" font-size="14.00">dependencies</text>
<g id="clust1" class="cluster">
<title>cluster_MapPageModule</title>
<polygon fill="none" stroke="black" stroke-dasharray="1,5" points="8,-32.8 8,-157.8 639,-157.8 639,-32.8 8,-32.8"/>
</g>
<g id="clust2" class="cluster">
<title>cluster_MapPageModule_declarations</title>
<polygon fill="none" stroke="black" points="547,-40.8 547,-92.8 631,-92.8 631,-40.8 547,-40.8"/>
</g>
<g id="clust4" class="cluster">
<title>cluster_MapPageModule_imports</title>
<polygon fill="none" stroke="black" points="16,-40.8 16,-92.8 539,-92.8 539,-40.8 16,-40.8"/>
</g>
<!-- MapPage -->
<g id="node1" class="node">
<title>MapPage</title>
<polygon fill="#ffffb3" stroke="black" points="623.37,-84.8 554.63,-84.8 554.63,-48.8 623.37,-48.8 623.37,-84.8"/>
<text text-anchor="middle" x="589" y="-62.6" font-family="Times,serif" font-size="14.00">MapPage</text>
</g>
<!-- MapPageModule -->
<g id="node2" class="node">
<title>MapPageModule</title>
<polygon fill="#8dd3c7" stroke="black" points="410.42,-149.8 407.42,-153.8 386.42,-153.8 383.42,-149.8 297.58,-149.8 297.58,-113.8 410.42,-113.8 410.42,-149.8"/>
<text text-anchor="middle" x="354" y="-127.6" font-family="Times,serif" font-size="14.00">MapPageModule</text>
</g>
<!-- MapPage&#45;&gt;MapPageModule -->
<g id="edge1" class="edge">
<title>MapPage&#45;&gt;MapPageModule</title>
<path fill="none" stroke="black" d="M589,-84.91C589,-104.14 589,-131.8 589,-131.8 589,-131.8 420.29,-131.8 420.29,-131.8"/>
<polygon fill="black" stroke="black" points="420.29,-128.3 410.29,-131.8 420.29,-135.3 420.29,-128.3"/>
</g>
<!-- CommonModule -->
<g id="node3" class="node">
<title>CommonModule</title>
<polygon fill="#8dd3c7" stroke="black" points="530.67,-84.8 527.67,-88.8 506.67,-88.8 503.67,-84.8 419.33,-84.8 419.33,-48.8 530.67,-48.8 530.67,-84.8"/>
<text text-anchor="middle" x="475" y="-62.6" font-family="Times,serif" font-size="14.00">CommonModule</text>
</g>
<!-- CommonModule&#45;&gt;MapPageModule -->
<g id="edge2" class="edge">
<title>CommonModule&#45;&gt;MapPageModule</title>
<path fill="none" stroke="black" d="M419.25,-66.8C411.4,-66.8 405.94,-66.8 405.94,-66.8 405.94,-66.8 405.94,-103.69 405.94,-103.69"/>
<polygon fill="black" stroke="black" points="402.44,-103.69 405.94,-113.69 409.44,-103.69 402.44,-103.69"/>
</g>
<!-- FormsModule -->
<g id="node4" class="node">
<title>FormsModule</title>
<polygon fill="#8dd3c7" stroke="black" points="401.83,-84.8 398.83,-88.8 377.83,-88.8 374.83,-84.8 306.17,-84.8 306.17,-48.8 401.83,-48.8 401.83,-84.8"/>
<text text-anchor="middle" x="354" y="-62.6" font-family="Times,serif" font-size="14.00">FormsModule</text>
</g>
<!-- FormsModule&#45;&gt;MapPageModule -->
<g id="edge3" class="edge">
<title>FormsModule&#45;&gt;MapPageModule</title>
<path fill="none" stroke="black" d="M354,-84.91C354,-84.91 354,-103.79 354,-103.79"/>
<polygon fill="black" stroke="black" points="350.5,-103.79 354,-113.79 357.5,-103.79 350.5,-103.79"/>
</g>
<!-- IonicModule -->
<g id="node5" class="node">
<title>IonicModule</title>
<polygon fill="#8dd3c7" stroke="black" points="288.32,-84.8 285.32,-88.8 264.32,-88.8 261.32,-84.8 199.68,-84.8 199.68,-48.8 288.32,-48.8 288.32,-84.8"/>
<text text-anchor="middle" x="244" y="-62.6" font-family="Times,serif" font-size="14.00">IonicModule</text>
</g>
<!-- IonicModule&#45;&gt;MapPageModule -->
<g id="edge4" class="edge">
<title>IonicModule&#45;&gt;MapPageModule</title>
<path fill="none" stroke="black" d="M288.3,-66.8C296.25,-66.8 302.06,-66.8 302.06,-66.8 302.06,-66.8 302.06,-103.69 302.06,-103.69"/>
<polygon fill="black" stroke="black" points="298.56,-103.69 302.06,-113.69 305.56,-103.69 298.56,-103.69"/>
</g>
<!-- MapPageRoutingModule -->
<g id="node6" class="node">
<title>MapPageRoutingModule</title>
<polygon fill="#8dd3c7" stroke="black" points="181.54,-84.8 178.54,-88.8 157.54,-88.8 154.54,-84.8 24.46,-84.8 24.46,-48.8 181.54,-48.8 181.54,-84.8"/>
<text text-anchor="middle" x="103" y="-62.6" font-family="Times,serif" font-size="14.00">MapPageRoutingModule</text>
</g>
<!-- MapPageRoutingModule&#45;&gt;MapPageModule -->
<g id="edge5" class="edge">
<title>MapPageRoutingModule&#45;&gt;MapPageModule</title>
<path fill="none" stroke="black" d="M103,-84.91C103,-104.14 103,-131.8 103,-131.8 103,-131.8 287.67,-131.8 287.67,-131.8"/>
<polygon fill="black" stroke="black" points="287.67,-135.3 297.67,-131.8 287.67,-128.3 287.67,-135.3"/>
</g>
</g>
</svg>
