<?xml version="1.0" encoding="UTF-8" standalone="no"?>
<!DOCTYPE svg PUBLIC "-//W3C//DTD SVG 1.1//EN"
 "http://www.w3.org/Graphics/SVG/1.1/DTD/svg11.dtd">
<!-- Generated by graphviz version 2.47.3 (20210619.1520)
 -->
<!-- Title: dependencies Pages: 1 -->
<svg width="999pt" height="247pt"
 viewBox="0.00 0.00 999.00 246.80" xmlns="http://www.w3.org/2000/svg" xmlns:xlink="http://www.w3.org/1999/xlink">
<g id="graph0" class="graph" transform="scale(1 1) rotate(0) translate(4 242.8)">
<title>dependencies</title>
<polygon fill="white" stroke="transparent" points="-4,4 -4,-242.8 995,-242.8 995,4 -4,4"/>
<text text-anchor="middle" x="495.5" y="-8.2" font-family="sans-serif" font-size="14.00">dependencies</text>
<g id="clust1" class="cluster">
<title>cluster_DetailPageModule</title>
<polygon fill="none" stroke="black" stroke-dasharray="1,5" points="8,-32.8 8,-230.8 983,-230.8 983,-32.8 8,-32.8"/>
</g>
<g id="clust2" class="cluster">
<title>cluster_DetailPageModule_declarations</title>
<polygon fill="none" stroke="black" points="694,-40.8 694,-92.8 975,-92.8 975,-40.8 694,-40.8"/>
</g>
<g id="clust5" class="cluster">
<title>cluster_DetailPageModule_imports</title>
<polygon fill="none" stroke="black" points="16,-40.8 16,-92.8 686,-92.8 686,-40.8 16,-40.8"/>
</g>
<g id="clust6" class="cluster">
<title>cluster_DetailPageModule_exports</title>
<polygon fill="none" stroke="black" points="407,-170.8 407,-222.8 595,-222.8 595,-170.8 407,-170.8"/>
</g>
<!-- DetailPage -->
<g id="node1" class="node">
<title>DetailPage</title>
<polygon fill="#ffffb3" stroke="black" points="966.92,-84.8 889.08,-84.8 889.08,-48.8 966.92,-48.8 966.92,-84.8"/>
<text text-anchor="middle" x="928" y="-62.6" font-family="Times,serif" font-size="14.00">DetailPage</text>
</g>
<!-- DetailPageModule -->
<g id="node3" class="node">
<title>DetailPageModule</title>
<polygon fill="#8dd3c7" stroke="black" points="561.47,-149.8 558.47,-153.8 537.47,-153.8 534.47,-149.8 440.53,-149.8 440.53,-113.8 561.47,-113.8 561.47,-149.8"/>
<text text-anchor="middle" x="501" y="-127.6" font-family="Times,serif" font-size="14.00">DetailPageModule</text>
</g>
<!-- DetailPage&#45;&gt;DetailPageModule -->
<g id="edge1" class="edge">
<title>DetailPage&#45;&gt;DetailPageModule</title>
<path fill="none" stroke="black" d="M928,-85.08C928,-106.12 928,-137.8 928,-137.8 928,-137.8 571.73,-137.8 571.73,-137.8"/>
<polygon fill="black" stroke="black" points="571.73,-134.3 561.73,-137.8 571.73,-141.3 571.73,-134.3"/>
</g>
<!-- FavouriteStatusComponent -->
<g id="node2" class="node">
<title>FavouriteStatusComponent</title>
<polygon fill="#ffffb3" stroke="black" points="871.71,-84.8 702.29,-84.8 702.29,-48.8 871.71,-48.8 871.71,-84.8"/>
<text text-anchor="middle" x="787" y="-62.6" font-family="Times,serif" font-size="14.00">FavouriteStatusComponent</text>
</g>
<!-- FavouriteStatusComponent&#45;&gt;DetailPageModule -->
<g id="edge2" class="edge">
<title>FavouriteStatusComponent&#45;&gt;DetailPageModule</title>
<path fill="none" stroke="black" d="M787,-84.82C787,-102.17 787,-125.8 787,-125.8 787,-125.8 571.65,-125.8 571.65,-125.8"/>
<polygon fill="black" stroke="black" points="571.65,-122.3 561.65,-125.8 571.65,-129.3 571.65,-122.3"/>
</g>
<!-- FavouriteStatusComponent  -->
<g id="node9" class="node">
<title>FavouriteStatusComponent </title>
<polygon fill="#fb8072" stroke="black" points="587.21,-214.8 414.79,-214.8 414.79,-178.8 587.21,-178.8 587.21,-214.8"/>
<text text-anchor="middle" x="501" y="-192.6" font-family="Times,serif" font-size="14.00">FavouriteStatusComponent </text>
</g>
<!-- DetailPageModule&#45;&gt;FavouriteStatusComponent  -->
<g id="edge8" class="edge">
<title>DetailPageModule&#45;&gt;FavouriteStatusComponent </title>
<path fill="none" stroke="black" stroke-dasharray="5,2" d="M501,-149.91C501,-149.91 501,-168.79 501,-168.79"/>
<polygon fill="black" stroke="black" points="497.5,-168.79 501,-178.79 504.5,-168.79 497.5,-168.79"/>
</g>
<!-- CommonModule -->
<g id="node4" class="node">
<title>CommonModule</title>
<polygon fill="#8dd3c7" stroke="black" points="677.67,-84.8 674.67,-88.8 653.67,-88.8 650.67,-84.8 566.33,-84.8 566.33,-48.8 677.67,-48.8 677.67,-84.8"/>
<text text-anchor="middle" x="622" y="-62.6" font-family="Times,serif" font-size="14.00">CommonModule</text>
</g>
<!-- CommonModule&#45;&gt;DetailPageModule -->
<g id="edge3" class="edge">
<title>CommonModule&#45;&gt;DetailPageModule</title>
<path fill="none" stroke="black" d="M566.13,-66.8C559.52,-66.8 555.07,-66.8 555.07,-66.8 555.07,-66.8 555.07,-103.69 555.07,-103.69"/>
<polygon fill="black" stroke="black" points="551.57,-103.69 555.07,-113.69 558.57,-103.69 551.57,-103.69"/>
</g>
<!-- FormsModule -->
<g id="node5" class="node">
<title>FormsModule</title>
<polygon fill="#8dd3c7" stroke="black" points="548.83,-84.8 545.83,-88.8 524.83,-88.8 521.83,-84.8 453.17,-84.8 453.17,-48.8 548.83,-48.8 548.83,-84.8"/>
<text text-anchor="middle" x="501" y="-62.6" font-family="Times,serif" font-size="14.00">FormsModule</text>
</g>
<!-- FormsModule&#45;&gt;DetailPageModule -->
<g id="edge4" class="edge">
<title>FormsModule&#45;&gt;DetailPageModule</title>
<path fill="none" stroke="black" d="M501,-84.91C501,-84.91 501,-103.79 501,-103.79"/>
<polygon fill="black" stroke="black" points="497.5,-103.79 501,-113.79 504.5,-103.79 497.5,-103.79"/>
</g>
<!-- IonicModule -->
<g id="node6" class="node">
<title>IonicModule</title>
<polygon fill="#8dd3c7" stroke="black" points="435.32,-84.8 432.32,-88.8 411.32,-88.8 408.32,-84.8 346.68,-84.8 346.68,-48.8 435.32,-48.8 435.32,-84.8"/>
<text text-anchor="middle" x="391" y="-62.6" font-family="Times,serif" font-size="14.00">IonicModule</text>
</g>
<!-- IonicModule&#45;&gt;DetailPageModule -->
<g id="edge5" class="edge">
<title>IonicModule&#45;&gt;DetailPageModule</title>
<path fill="none" stroke="black" d="M435.34,-66.8C442.13,-66.8 446.93,-66.8 446.93,-66.8 446.93,-66.8 446.93,-103.69 446.93,-103.69"/>
<polygon fill="black" stroke="black" points="443.43,-103.69 446.93,-113.69 450.43,-103.69 443.43,-103.69"/>
</g>
<!-- DetailPageRoutingModule -->
<g id="node7" class="node">
<title>DetailPageRoutingModule</title>
<polygon fill="#8dd3c7" stroke="black" points="329.09,-84.8 326.09,-88.8 305.09,-88.8 302.09,-84.8 162.91,-84.8 162.91,-48.8 329.09,-48.8 329.09,-84.8"/>
<text text-anchor="middle" x="246" y="-62.6" font-family="Times,serif" font-size="14.00">DetailPageRoutingModule</text>
</g>
<!-- DetailPageRoutingModule&#45;&gt;DetailPageModule -->
<g id="edge6" class="edge">
<title>DetailPageRoutingModule&#45;&gt;DetailPageModule</title>
<path fill="none" stroke="black" d="M246,-84.82C246,-102.17 246,-125.8 246,-125.8 246,-125.8 430.25,-125.8 430.25,-125.8"/>
<polygon fill="black" stroke="black" points="430.25,-129.3 440.25,-125.8 430.25,-122.3 430.25,-129.3"/>
</g>
<!-- NgbRatingModule -->
<g id="node8" class="node">
<title>NgbRatingModule</title>
<polygon fill="#8dd3c7" stroke="black" points="144.49,-84.8 141.49,-88.8 120.49,-88.8 117.49,-84.8 23.51,-84.8 23.51,-48.8 144.49,-48.8 144.49,-84.8"/>
<text text-anchor="middle" x="84" y="-62.6" font-family="Times,serif" font-size="14.00">NgbRatingModule</text>
</g>
<!-- NgbRatingModule&#45;&gt;DetailPageModule -->
<g id="edge7" class="edge">
<title>NgbRatingModule&#45;&gt;DetailPageModule</title>
<path fill="none" stroke="black" d="M84,-85.08C84,-106.12 84,-137.8 84,-137.8 84,-137.8 430.36,-137.8 430.36,-137.8"/>
<polygon fill="black" stroke="black" points="430.36,-141.3 440.36,-137.8 430.36,-134.3 430.36,-141.3"/>
</g>
</g>
</svg>
