<?xml version="1.0" encoding="UTF-8" standalone="no"?>
<!DOCTYPE svg PUBLIC "-//W3C//DTD SVG 1.1//EN"
 "http://www.w3.org/Graphics/SVG/1.1/DTD/svg11.dtd">
<!-- Generated by graphviz version 2.47.3 (20210619.1520)
 -->
<!-- Title: dependencies Pages: 1 -->
<svg width="811pt" height="174pt"
 viewBox="0.00 0.00 811.00 173.80" xmlns="http://www.w3.org/2000/svg" xmlns:xlink="http://www.w3.org/1999/xlink">
<g id="graph0" class="graph" transform="scale(1 1) rotate(0) translate(4 169.8)">
<title>dependencies</title>
<polygon fill="white" stroke="transparent" points="-4,4 -4,-169.8 807,-169.8 807,4 -4,4"/>
<text text-anchor="middle" x="401.5" y="-8.2" font-family="sans-serif" font-size="14.00">dependencies</text>
<g id="clust1" class="cluster">
<title>cluster_ExplorePageModule</title>
<polygon fill="none" stroke="black" stroke-dasharray="1,5" points="8,-32.8 8,-157.8 795,-157.8 795,-32.8 8,-32.8"/>
</g>
<g id="clust2" class="cluster">
<title>cluster_ExplorePageModule_declarations</title>
<polygon fill="none" stroke="black" points="683,-40.8 683,-92.8 787,-92.8 787,-40.8 683,-40.8"/>
</g>
<g id="clust4" class="cluster">
<title>cluster_ExplorePageModule_imports</title>
<polygon fill="none" stroke="black" points="16,-40.8 16,-92.8 675,-92.8 675,-40.8 16,-40.8"/>
</g>
<!-- ExplorePage -->
<g id="node1" class="node">
<title>ExplorePage</title>
<polygon fill="#ffffb3" stroke="black" points="778.53,-84.8 691.47,-84.8 691.47,-48.8 778.53,-48.8 778.53,-84.8"/>
<text text-anchor="middle" x="735" y="-62.6" font-family="Times,serif" font-size="14.00">ExplorePage</text>
</g>
<!-- ExplorePageModule -->
<g id="node2" class="node">
<title>ExplorePageModule</title>
<polygon fill="#8dd3c7" stroke="black" points="500.58,-149.8 497.58,-153.8 476.58,-153.8 473.58,-149.8 369.42,-149.8 369.42,-113.8 500.58,-113.8 500.58,-149.8"/>
<text text-anchor="middle" x="435" y="-127.6" font-family="Times,serif" font-size="14.00">ExplorePageModule</text>
</g>
<!-- ExplorePage&#45;&gt;ExplorePageModule -->
<g id="edge1" class="edge">
<title>ExplorePage&#45;&gt;ExplorePageModule</title>
<path fill="none" stroke="black" d="M735,-85.08C735,-106.12 735,-137.8 735,-137.8 735,-137.8 510.84,-137.8 510.84,-137.8"/>
<polygon fill="black" stroke="black" points="510.84,-134.3 500.84,-137.8 510.84,-141.3 510.84,-134.3"/>
</g>
<!-- CommonModule -->
<g id="node3" class="node">
<title>CommonModule</title>
<polygon fill="#8dd3c7" stroke="black" points="666.67,-84.8 663.67,-88.8 642.67,-88.8 639.67,-84.8 555.33,-84.8 555.33,-48.8 666.67,-48.8 666.67,-84.8"/>
<text text-anchor="middle" x="611" y="-62.6" font-family="Times,serif" font-size="14.00">CommonModule</text>
</g>
<!-- CommonModule&#45;&gt;ExplorePageModule -->
<g id="edge2" class="edge">
<title>CommonModule&#45;&gt;ExplorePageModule</title>
<path fill="none" stroke="black" d="M611,-84.82C611,-102.17 611,-125.8 611,-125.8 611,-125.8 510.79,-125.8 510.79,-125.8"/>
<polygon fill="black" stroke="black" points="510.79,-122.3 500.79,-125.8 510.79,-129.3 510.79,-122.3"/>
</g>
<!-- FormsModule -->
<g id="node4" class="node">
<title>FormsModule</title>
<polygon fill="#8dd3c7" stroke="black" points="537.83,-84.8 534.83,-88.8 513.83,-88.8 510.83,-84.8 442.17,-84.8 442.17,-48.8 537.83,-48.8 537.83,-84.8"/>
<text text-anchor="middle" x="490" y="-62.6" font-family="Times,serif" font-size="14.00">FormsModule</text>
</g>
<!-- FormsModule&#45;&gt;ExplorePageModule -->
<g id="edge3" class="edge">
<title>FormsModule&#45;&gt;ExplorePageModule</title>
<path fill="none" stroke="black" d="M471.44,-84.91C471.44,-84.91 471.44,-103.79 471.44,-103.79"/>
<polygon fill="black" stroke="black" points="467.94,-103.79 471.44,-113.79 474.94,-103.79 467.94,-103.79"/>
</g>
<!-- IonicModule -->
<g id="node5" class="node">
<title>IonicModule</title>
<polygon fill="#8dd3c7" stroke="black" points="424.32,-84.8 421.32,-88.8 400.32,-88.8 397.32,-84.8 335.68,-84.8 335.68,-48.8 424.32,-48.8 424.32,-84.8"/>
<text text-anchor="middle" x="380" y="-62.6" font-family="Times,serif" font-size="14.00">IonicModule</text>
</g>
<!-- IonicModule&#45;&gt;ExplorePageModule -->
<g id="edge4" class="edge">
<title>IonicModule&#45;&gt;ExplorePageModule</title>
<path fill="none" stroke="black" d="M396.81,-84.91C396.81,-84.91 396.81,-103.79 396.81,-103.79"/>
<polygon fill="black" stroke="black" points="393.31,-103.79 396.81,-113.79 400.31,-103.79 393.31,-103.79"/>
</g>
<!-- ExplorePageRoutingModule -->
<g id="node6" class="node">
<title>ExplorePageRoutingModule</title>
<polygon fill="#8dd3c7" stroke="black" points="318.2,-84.8 315.2,-88.8 294.2,-88.8 291.2,-84.8 141.8,-84.8 141.8,-48.8 318.2,-48.8 318.2,-84.8"/>
<text text-anchor="middle" x="230" y="-62.6" font-family="Times,serif" font-size="14.00">ExplorePageRoutingModule</text>
</g>
<!-- ExplorePageRoutingModule&#45;&gt;ExplorePageModule -->
<g id="edge5" class="edge">
<title>ExplorePageRoutingModule&#45;&gt;ExplorePageModule</title>
<path fill="none" stroke="black" d="M230,-84.82C230,-102.17 230,-125.8 230,-125.8 230,-125.8 359.29,-125.8 359.29,-125.8"/>
<polygon fill="black" stroke="black" points="359.29,-129.3 369.29,-125.8 359.29,-122.3 359.29,-129.3"/>
</g>
<!-- SwiperModule -->
<g id="node7" class="node">
<title>SwiperModule</title>
<polygon fill="#8dd3c7" stroke="black" points="123.71,-84.8 120.71,-88.8 99.71,-88.8 96.71,-84.8 24.29,-84.8 24.29,-48.8 123.71,-48.8 123.71,-84.8"/>
<text text-anchor="middle" x="74" y="-62.6" font-family="Times,serif" font-size="14.00">SwiperModule</text>
</g>
<!-- SwiperModule&#45;&gt;ExplorePageModule -->
<g id="edge6" class="edge">
<title>SwiperModule&#45;&gt;ExplorePageModule</title>
<path fill="none" stroke="black" d="M74,-85.08C74,-106.12 74,-137.8 74,-137.8 74,-137.8 359.21,-137.8 359.21,-137.8"/>
<polygon fill="black" stroke="black" points="359.21,-141.3 369.21,-137.8 359.21,-134.3 359.21,-141.3"/>
</g>
</g>
</svg>
